<?xml version="1.0" encoding="UTF-8" standalone="no"?>
<!-- Created with Inkscape (http://www.inkscape.org/) -->

<svg
   width="210mm"
   height="297mm"
   viewBox="0 0 210 297"
   version="1.1"
   id="svg1"
   xml:space="preserve"
   inkscape:export-filename="bitmap.png"
   inkscape:export-xdpi="96"
   inkscape:export-ydpi="96"
   inkscape:version="1.3.2 (091e20e, 2023-11-25)"
   sodipodi:docname="drawing.svg"
   xmlns:inkscape="http://www.inkscape.org/namespaces/inkscape"
   xmlns:sodipodi="http://sodipodi.sourceforge.net/DTD/sodipodi-0.dtd"
   xmlns="http://www.w3.org/2000/svg"
   xmlns:svg="http://www.w3.org/2000/svg"><sodipodi:namedview
     id="namedview1"
     pagecolor="#ffffff"
     bordercolor="#000000"
     borderopacity="0.25"
     inkscape:showpageshadow="2"
     inkscape:pageopacity="0.0"
     inkscape:pagecheckerboard="0"
     inkscape:deskcolor="#d1d1d1"
     inkscape:document-units="mm"
     inkscape:zoom="1.3798531"
     inkscape:cx="312.35209"
     inkscape:cy="376.12699"
     inkscape:window-width="2560"
     inkscape:window-height="1307"
     inkscape:window-x="0"
     inkscape:window-y="25"
     inkscape:window-maximized="1"
     inkscape:current-layer="layer1" /><defs
     id="defs1" /><g
     inkscape:label="Layer 1"
     inkscape:groupmode="layer"
     id="layer1"><path
       style="fill:#ff7f2a;stroke-width:0.471172"
       d="m 129.07965,101.69056 c -1.16561,-0.18832 -2.21616,-0.36438 -2.33454,-0.39125 -0.20118,-0.0456 -0.21747,-0.66384 -0.24933,-9.460991 l -0.0341,-9.41214 h 2.46209 2.46208 l 3e-5,9.8173 c 2e-5,5.39951 -0.042,9.811041 -0.0935,9.803391 -0.0514,-0.008 -1.04718,-0.16799 -2.21279,-0.35631 z m 6.17096,-9.433211 9e-5,-9.83117 2.46203,-9.5e-4 2.46203,-9.4e-4 0.0405,9.48309 0.0405,9.483091 -2.09746,0.28246 c -1.1536,0.15536 -2.27977,0.31241 -2.50261,0.349 l -0.40516,0.0665 z m 8.72638,-0.89897 -4e-5,-8.9322 h 2.49327 2.49327 l 5e-5,7.92687 4e-5,7.92688 -1.49533,0.64864 c -0.82243,0.35676 -1.9444,0.80916 -2.49328,1.00533 l -0.99796,0.356681 z m -22.75119,8.09134 c -0.68565,-0.32593 -1.73751,-0.82498 -2.33745,-1.10902 -0.75545,-0.35764 -1.09187,-0.58381 -1.09425,-0.73562 -0.002,-0.12057 -0.0159,-3.58514 -0.0311,-7.69906 l -0.0277,-7.47984 h 2.46044 2.46043 l 0.0328,8.82 c 0.0217,5.82463 -0.01,8.815951 -0.0918,8.808081 -0.0686,-0.007 -0.68565,-0.278611 -1.3713,-0.604541 z m 31.353,-10.19818 -3e-5,-6.82536 2.42154,0.019 2.42155,0.019 0.074,4.79996 0.074,4.79996 -1.49451,1.31714 c -1.37255,1.20966 -3.26199,2.69566 -3.42751,2.69566 -0.0379,0 -0.069,-3.07141 -0.069,-6.82536 z m -39.95838,4.85552 c -0.6837,-0.59593 -1.76327,-1.58861 -2.39906,-2.20595 l -1.15598,-1.12244 -0.0283,-4.18566 -0.0283,-4.18566 2.46656,0.0463 2.46655,0.0463 -0.007,6.31281 c -0.004,3.47204 -0.0212,6.32745 -0.0391,6.34533 -0.0179,0.0179 -0.59191,-0.45505 -1.27561,-1.05099 z m 48.76447,-7.65268 c -0.0438,-0.41865 -0.0796,-1.50045 -0.0796,-2.40401 v -1.64283 l 1.40247,0.0555 c 0.77136,0.0305 1.42005,0.071 1.44152,0.0899 0.12141,0.1071 -1.81045,3.53725 -2.47088,4.38723 -0.21032,0.27068 -0.21536,0.26235 -0.29355,-0.48578 z m -56.9226,-2.21298 c -1.02786,-2.04824 -1.03366,-1.87756 0.0638,-1.87756 h 0.9341 l -0.0811,1.40247 c -0.0446,0.77136 -0.12391,1.48323 -0.17621,1.58193 -0.0655,0.12358 -0.29607,-0.22102 -0.7406,-1.10684 z m -2.35122,-5.69777 c -0.335,-0.82462 -1.32196,-5.26241 -1.19864,-5.3896 0.0956,-0.0986 1.14181,-0.25404 1.7451,-0.25923 1.25628,-0.0108 2.7348,1.1103 3.03465,2.30111 0.18785,0.74603 0.0624,1.4245 -0.40838,2.20906 -0.56076,0.93447 -1.25465,1.38178 -2.24093,1.44458 -0.76791,0.0489 -0.79069,0.0414 -0.9318,-0.30592 z m 8.3615,0.14336 c -1.46519,-0.63678 -2.16037,-2.09617 -1.72004,-3.61085 0.46251,-1.59099 2.06059,-2.48714 3.59657,-2.01683 0.81555,0.24971 1.33842,0.67828 1.7499,1.43431 0.79953,1.469 0.2167,3.30547 -1.29161,4.06978 -0.70285,0.35616 -1.68061,0.40791 -2.33482,0.12359 z m 17.20211,-0.0774 c -2.59265,-1.28334 -1.95421,-5.19842 0.91955,-5.63894 1.16686,-0.17886 2.67895,0.72237 3.11126,1.85437 0.38821,1.01651 0.0405,2.45055 -0.78697,3.24547 -0.84337,0.81022 -2.23041,1.04074 -3.24384,0.5391 z m 26.48826,0.0726 c -0.73133,-0.26841 -1.13166,-0.60955 -1.48385,-1.26451 -0.46037,-0.85611 -0.54155,-1.52076 -0.28528,-2.33551 0.49445,-1.572 2.01957,-2.48044 3.49654,-2.08273 1.11994,0.30157 2.17128,1.697 2.17128,2.88193 0,0.75792 -0.46866,1.72023 -1.10164,2.26203 -0.8252,0.70635 -1.81894,0.89777 -2.79705,0.53879 z m 8.57094,-0.10395 c -1.54302,-0.71852 -2.15543,-2.51073 -1.3805,-4.03999 0.92089,-1.81729 3.29043,-2.18623 4.78269,-0.74467 0.36724,0.35477 0.40516,0.46034 0.40516,1.1281 0,0.72098 -0.19049,1.66277 -0.58116,2.87324 -0.16573,0.5135 -0.27281,0.63987 -0.7108,0.83875 -0.72916,0.3311 -1.73282,0.30899 -2.51539,-0.0554 z m -43.02499,-8.80034 c -1.64138,-0.39095 -2.67206,-2.03177 -2.23046,-3.55083 0.39643,-1.36365 1.28162,-2.16407 2.5172,-2.27611 2.30111,-0.20865 3.87286,2.10338 2.83956,4.17695 -0.39559,0.79385 -1.03669,1.34347 -1.85018,1.58616 -0.67075,0.20012 -0.69817,0.20149 -1.27612,0.0638 z m 16.54504,-0.41023 c -1.88103,-1.13999 -1.91631,-3.86438 -0.065,-5.01774 0.53236,-0.33165 0.7096,-0.37399 1.56551,-0.37399 0.87305,0 1.01645,0.036 1.50226,0.37748 0.8851,0.62206 1.27615,1.29331 1.33229,2.28693 0.0404,0.71566 -4.1e-4,0.94054 -0.2651,1.45943 -0.5812,1.13937 -1.44066,1.67304 -2.69434,1.67304 -0.57752,0 -0.82963,-0.0743 -1.37564,-0.40515 z m 17.93121,0.23317 c -1.17537,-0.42004 -1.85767,-1.43304 -1.85289,-2.75094 0.008,-2.15873 2.07009,-3.54366 3.98652,-2.67717 2.47605,1.11951 2.21963,4.63132 -0.39487,5.40775 -0.77529,0.23023 -1.13951,0.2345 -1.73876,0.0203 z m 8.55383,-0.0715 c -1.55065,-0.61513 -2.20796,-2.47731 -1.41977,-4.02229 1.21763,-2.38676 4.46178,-2.10853 5.34493,0.45838 0.34066,0.99015 0.19064,1.89346 -0.46171,2.78005 -0.66242,0.90029 -2.25904,1.26164 -3.46345,0.78386 z m -60.86728,-9.01244 c -0.22283,-0.0715 -0.40515,-0.1991 -0.40515,-0.2836 0,-0.42613 1.69736,-5.24852 1.94755,-5.53319 0.10136,-0.11534 1.0778,0.43193 1.49694,0.83899 2.2313,2.16702 -0.0671,5.93128 -3.03934,4.9778 z m 8.7527,0.0228 c -0.55117,-0.16027 -1.36704,-0.90791 -1.66705,-1.52764 -0.33339,-0.6887 -0.34466,-1.81944 -0.0252,-2.52288 0.44797,-0.98624 1.57623,-1.67601 2.74147,-1.67601 1.4234,0 2.75795,1.41762 2.75795,2.92961 0,1.94766 -1.90784,3.34924 -3.80721,2.79692 z m 17.27095,-0.0644 c -1.46251,-0.52147 -2.21357,-2.16365 -1.68052,-3.67444 0.27995,-0.79349 0.72128,-1.29893 1.45218,-1.66315 1.6387,-0.8166 3.50845,0.0425 4.03506,1.85399 0.2072,0.71275 0.1771,1.12091 -0.13835,1.87588 -0.58188,1.39265 -2.23708,2.11806 -3.66837,1.60772 z m 9.16282,0.0754 c -0.95111,-0.24451 -1.5181,-0.68442 -1.9299,-1.49733 -0.52557,-1.03751 -0.41825,-2.13637 0.30599,-3.13316 1.5982,-2.19963 5.18443,-1.00549 5.17409,1.72287 -0.005,1.30179 -0.69307,2.35327 -1.81474,2.77294 -0.71302,0.26678 -1.1037,0.2971 -1.73544,0.13468 z m 8.58869,-0.0138 c -1.73634,-0.41172 -2.6349,-2.90259 -1.58564,-4.39549 0.95874,-1.36412 3.05733,-1.76537 4.15577,-0.79456 0.93249,0.82412 1.38256,1.98408 1.13155,2.91628 -0.44576,1.65541 -2.0789,2.65857 -3.70168,2.27377 z m 17.30677,-0.0399 c -1.75565,-0.57391 -2.53397,-2.45378 -1.71175,-4.13436 0.4054,-0.82859 1.09503,-1.33086 2.15211,-1.56743 0.62031,-0.13881 0.70101,-0.13215 0.84892,0.0701 0.14672,0.20066 1.79967,5.06716 1.79967,5.29848 0,0.15262 -0.92877,0.38824 -1.77494,0.45029 -0.4837,0.0355 -0.98357,-0.009 -1.31401,-0.1171 z m -44.00268,-9.187531 c -0.88006,-0.435622 -1.65206,-1.658044 -1.65206,-2.615945 0,-0.581317 0.47021,-1.658383 0.90352,-2.069593 0.8134,-0.771925 1.98369,-1.08868 2.90225,-0.785528 0.61571,0.203202 1.53118,1.049073 1.8202,1.681809 0.61916,1.355505 -0.19616,3.246104 -1.66388,3.858269 -0.66409,0.276983 -1.67186,0.246875 -2.31003,-0.06901 z m 35.27832,0.103003 c -0.2236,-0.08499 -0.60047,-0.309254 -0.83747,-0.498368 -1.94283,-1.550225 -1.24481,-4.54814 1.21308,-5.20998 1.58974,-0.428074 3.45399,1.106207 3.45797,2.845924 0.002,1.007171 -0.82069,2.233975 -1.81527,2.705938 -0.57436,0.272554 -1.52005,0.345873 -2.01831,0.156486 z m -17.8284,-0.229183 c -1.12435,-0.556543 -1.81237,-1.956507 -1.54046,-3.134479 0.55119,-2.387902 3.47822,-3.15896 5.04468,-1.328901 1.27345,1.487743 0.70302,3.77816 -1.1319,4.544841 -0.64701,0.270339 -1.73723,0.2329 -2.37232,-0.08146 z m 8.88513,0.09022 c -0.47855,-0.209671 -1.10997,-0.857773 -1.39669,-1.433601 -0.28979,-0.581977 -0.29458,-1.918158 -0.009,-2.453212 0.98287,-1.840118 3.39357,-2.21837 4.69458,-0.736606 0.55873,0.636369 0.76304,1.162626 0.75974,1.956927 -0.005,1.141517 -0.71789,2.208094 -1.76972,2.646802 -0.5611,0.234026 -1.76617,0.244439 -2.27912,0.0197 z m -17.58648,-9.098997 c -0.82368,-0.38354 -1.35448,-1.04164 -1.61428,-2.001408 -0.23233,-0.858318 -0.1423,-1.46525 0.34768,-2.343821 0.39682,-0.711511 1.61364,-1.444972 2.4239,-1.461046 0.58773,-0.01166 1.63107,0.500071 2.13565,1.047479 1.70896,1.854008 0.28807,5.061669 -2.23894,5.054375 -0.23202,-4.71e-4 -0.70633,-0.133681 -1.05401,-0.295579 z m 9.27394,0.122891 c -0.84538,-0.22763 -1.45021,-0.743402 -1.82708,-1.558058 -0.65436,-1.414489 -0.2907,-2.917641 0.90008,-3.720398 1.15997,-0.781991 2.16174,-0.792931 3.3543,-0.03663 1.9659,1.246738 1.38131,4.610311 -0.92005,5.293743 -0.76378,0.226819 -0.74514,0.226556 -1.50725,0.02134 z m 8.58225,-0.10324 c -0.26304,-0.06969 -0.6769,-0.325349 -0.91968,-0.568126 -1.04373,-1.043733 -1.24087,-2.50025 -0.53301,-3.938107 0.22379,-0.454579 0.43224,-0.826508 0.46323,-0.826508 0.031,0 1.08917,0.45549 2.35151,1.012199 l 2.29516,1.0122 v 0.428566 c 0,1.23846 -0.61409,2.241855 -1.67414,2.735461 -0.67012,0.312044 -1.20348,0.350859 -1.98307,0.144315 z"
       id="path1" /><circle
       style="fill:none;stroke:#6c6c6c;stroke-width:3.56441;stroke-dasharray:none;stroke-opacity:1"
       id="path2"
       cx="133.87143"
       cy="69.228249"
       r="33.984715"
       inkscape:export-filename="../../../../../../Downloads/path2.png"
       inkscape:export-xdpi="96"
       inkscape:export-ydpi="96" /></g></svg>
